<?xml version="1.0" encoding="UTF-8"?>
<!-- Generator: Adobe Illustrator 18.0.0, SVG Export Plug-In . SVG Version: 6.00 Build 0)  -->
<svg enable-background="new 0 0 712.1 353.2" version="1.1" viewBox="0 0 712.1 353.2" xml:space="preserve" xmlns="http://www.w3.org/2000/svg" xmlns:cc="http://creativecommons.org/ns#" xmlns:dc="http://purl.org/dc/elements/1.1/" xmlns:rdf="http://www.w3.org/1999/02/22-rdf-syntax-ns#"><metadata><rdf:RDF><cc:Work rdf:about=""><dc:format>image/svg+xml</dc:format><dc:type rdf:resource="http://purl.org/dc/dcmitype/StillImage"/><dc:title/></cc:Work></rdf:RDF></metadata><g fill="#fff">
<path d="m48.1 60c4.5 0 8.3 1.6 11.5 4.8s4.7 7 4.7 11.5c0 4.4-1.6 8.2-4.7 11.4-3.2 3.2-7 4.8-11.5 4.8-4.4 0-8.1-1.6-11.3-4.8s-4.7-7-4.7-11.4c0-4.5 1.6-8.3 4.7-11.5s6.9-4.8 11.3-4.8zm-9.8 62.8h19.6v152.6h-19.6v-152.6z"/>
<path d="m230.3 122.8h19.7v121.6c0 21.4-1.9 37.1-5.6 47-5.1 14-14.1 24.8-26.8 32.4s-28 11.4-45.9 11.4c-13.1 0-24.9-1.9-35.3-5.6s-18.9-8.7-25.5-14.9c-6.5-6.2-12.6-15.4-18.1-27.4h21.3c5.8 10.1 13.3 17.6 22.5 22.4 9.2 4.9 20.6 7.3 34.1 7.3 13.4 0 24.7-2.5 33.9-7.5s15.8-11.3 19.7-18.8 5.9-19.7 5.9-36.6v-7.9c-7.4 9.4-16.4 16.5-27.1 21.5s-22 7.5-34 7.5c-14 0-27.2-3.5-39.6-10.4-12.4-7-21.9-16.3-28.6-28.1s-10.1-24.7-10.1-38.9c0-14.1 3.5-27.3 10.5-39.5s16.7-21.9 29.1-29 25.5-10.7 39.2-10.7c11.4 0 22.1 2.4 31.9 7.1 9.9 4.7 19.4 12.5 28.6 23.4v-26.3zm-57.9 15c-11.1 0-21.5 2.7-31 8.1s-17 12.8-22.4 22.3-8.1 19.8-8.1 30.8c0 16.7 5.6 30.6 16.8 41.5s25.8 16.4 43.6 16.4c18 0 32.6-5.4 43.6-16.3 11-10.8 16.5-25.1 16.5-42.8 0-11.5-2.5-21.8-7.6-30.8-5-9-12.2-16.2-21.5-21.4s-19.2-7.8-29.9-7.8z"/>
<path d="M289.1,63.9h19.6v211.5h-19.6V63.9z"/>
<path d="m472.6 142.6c14 15.5 21.1 33.9 21.1 55.1 0 21.3-7.4 40-22.3 55.9-14.8 15.9-33.9 23.9-57.3 23.9s-42.6-8-57.4-23.9-22.3-34.6-22.3-55.9c0-21.1 7-39.5 21.1-55 2.6-2.9 5.3-5.5 8.1-7.9l14.2 14.2c-2 1.6-3.9 3.4-5.8 5.3-11.7 12.1-17.6 26.6-17.6 43.8 0 11 2.7 21.3 8 30.9 5.3 9.5 12.6 16.9 21.7 22.1s19.1 7.8 30 7.8 20.9-2.6 30-7.8 16.3-12.6 21.7-22.1c5.3-9.5 8-19.8 8-30.9 0-17.1-5.9-31.7-17.7-43.8"/>
<path d="m598.1 197.4c0 23.5-8.5 43-25.5 58.5-15.5 14-33.9 21.1-55.1 21.1-21.3 0-40-7.4-55.9-22.3-15.9-14.8-23.9-33.9-23.9-57.3s8-42.6 23.9-57.4 34.6-22.3 55.9-22.3c21.1 0 39.5 7 55 21.1 17 15.4 25.6 34.9 25.6 58.6zm-19.2-0.1c0-16.3-6-30.4-18.1-42.1s-26.6-17.6-43.8-17.6c-11 0-21.3 2.7-30.9 8-9.5 5.3-16.9 12.6-22.1 21.7s-7.8 19.1-7.8 30 2.6 20.9 7.8 30 12.6 16.3 22.1 21.7c9.5 5.3 19.8 8 30.9 8 17.1 0 31.7-5.9 43.8-17.7 12-11.8 18.1-25.8 18.1-42z"/>
<g stroke="#fff" stroke-linecap="round" stroke-miterlimit="10" stroke-width="8">
	<path d="m649.5 215c23.8 0 43 27.5 43 61.4"/>
	<path d="m649.5 179.6c23.8 0 43-27.5 43-61.4"/>
</g>
	<path d="m610.8 133.5c-8.9 0-17.4 1.8-25.1 5.1l0.2 0.2c17.1 15.5 25.7 35 25.7 58.6 0 23.5-8.5 43-25.5 58.5-0.1 0.1-0.2 0.1-0.2 0.2 7.7 3.3 16.2 5.1 25 5.1 35.2 0 63.8-28.6 63.8-63.8s-28.7-63.9-63.9-63.9z" fill="#fff"/>
<path d="m419.1 14.3c39.2 2.4 72.4 16.1 100.4 42.3 5.3 5 5 11.2-0.6 15.9-7.7 6.6-15.5 13.1-23.3 19.7-6.4 5.4-10.4 5.6-16.6 0.1-13.7-12.2-29.3-20.6-47.5-23.8-23.2-4.2-45.3-0.6-66.4 9.6-4 2-5.5 6.2-3.8 9.5 1.9 3.7 5.9 4.6 10.4 2.3 15.4-8.1 31.4-13.7 49.1-12.4 22 1.7 40 11.6 54.6 27.8 3.7 4.1 3.8 9.1-0.2 13-7.5 7.4-15.2 14.5-23 21.5-3.8 3.4-9.1 3.2-12.7-0.5-13.8-14-34-14.9-48.9-1.8-4.7 4.1-10.8 3.7-14.2-0.5s-2.7-9.5 1.8-13.8c16.3-15.4 41-18.4 61.6-7.5 1.5 0.8 3.1 2.3 4.4 2.1 2.2-0.4 4.9-1.4 6.1-3.1 1.9-2.5 0.9-5.5-1.8-7.4-10.9-7.8-23-12.4-36.4-11-15.2 1.6-28.9 7.4-41 16.9-6.1 4.8-11.2 4.3-15.8-1.8-6.2-8.1-12.2-16.3-18.1-24.5-4.6-6.4-3.9-11 2.7-15.7 17.9-13 38-20.4 59.9-22.7 30-3.2 57.4 3.7 81.9 21.4 4.5 3.2 9.2 2.5 11.8-1.3 2.6-4 1.5-8-3.3-11.4-46.3-32.8-112.7-31.5-157.6 3.3-1.3 1-2.7 2-4 3-4.6 3.1-10.4 2.5-13.4-1.5-3.3-4.4-2.2-10.3 2.5-14.1 17.2-13.6 36.5-22.9 57.7-28.5 14.7-3.9 29.6-5.3 43.7-5.1z"/>
</g></svg>
