<?xml version="1.0" encoding="utf-8"?>
<!-- Generator: Adobe Illustrator 18.0.0, SVG Export Plug-In . SVG Version: 6.00 Build 0)  -->
<!DOCTYPE svg PUBLIC "-//W3C//DTD SVG 1.1//EN" "http://www.w3.org/Graphics/SVG/1.1/DTD/svg11.dtd">
<svg version="1.1" id="Layer_1" xmlns="http://www.w3.org/2000/svg" xmlns:xlink="http://www.w3.org/1999/xlink" x="0px" y="0px"
	 viewBox="0 0 712.1 353.2" enable-background="new 0 0 712.1 353.2" xml:space="preserve">
<path d="M48.1,60c4.5,0,8.3,1.6,11.5,4.8c3.2,3.2,4.7,7,4.7,11.5c0,4.4-1.6,8.2-4.7,11.4c-3.2,3.2-7,4.8-11.5,4.8
	c-4.4,0-8.1-1.6-11.3-4.8c-3.2-3.2-4.7-7-4.7-11.4c0-4.5,1.6-8.3,4.7-11.5C39.9,61.6,43.7,60,48.1,60z M38.3,122.8h19.6v152.6H38.3
	V122.8z"/>
<path d="M230.3,122.8H250v121.6c0,21.4-1.9,37.1-5.6,47c-5.1,14-14.1,24.8-26.8,32.4c-12.7,7.6-28,11.4-45.9,11.4
	c-13.1,0-24.9-1.9-35.3-5.6c-10.4-3.7-18.9-8.7-25.5-14.9c-6.5-6.2-12.6-15.4-18.1-27.4h21.3c5.8,10.1,13.3,17.6,22.5,22.4
	c9.2,4.9,20.6,7.3,34.1,7.3c13.4,0,24.7-2.5,33.9-7.5c9.2-5,15.8-11.3,19.7-18.8c3.9-7.5,5.9-19.7,5.9-36.6v-7.9
	c-7.4,9.4-16.4,16.5-27.1,21.5c-10.7,5-22,7.5-34,7.5c-14,0-27.2-3.5-39.6-10.4c-12.4-7-21.9-16.3-28.6-28.1
	c-6.7-11.8-10.1-24.7-10.1-38.9c0-14.1,3.5-27.3,10.5-39.5c7-12.2,16.7-21.9,29.1-29c12.4-7.1,25.5-10.7,39.2-10.7
	c11.4,0,22.1,2.4,31.9,7.1c9.9,4.7,19.4,12.5,28.6,23.4V122.8z M172.4,137.8c-11.1,0-21.5,2.7-31,8.1c-9.5,5.4-17,12.8-22.4,22.3
	c-5.4,9.5-8.1,19.8-8.1,30.8c0,16.7,5.6,30.6,16.8,41.5c11.2,10.9,25.8,16.4,43.6,16.4c18,0,32.6-5.4,43.6-16.3
	c11-10.8,16.5-25.1,16.5-42.8c0-11.5-2.5-21.8-7.6-30.8c-5-9-12.2-16.2-21.5-21.4C193,140.4,183.1,137.8,172.4,137.8z"/>
<path d="M289.1,63.9h19.6v211.5h-19.6V63.9z"/>
<path d="M472.6,142.6c14,15.5,21.1,33.9,21.1,55.1c0,21.3-7.4,40-22.3,55.9c-14.8,15.9-33.9,23.9-57.3,23.9
	c-23.4,0-42.6-8-57.4-23.9c-14.8-15.9-22.3-34.6-22.3-55.9c0-21.1,7-39.5,21.1-55c2.6-2.9,5.3-5.5,8.1-7.9l14.2,14.2
	c-2,1.6-3.9,3.4-5.8,5.3c-11.7,12.1-17.6,26.6-17.6,43.8c0,11,2.7,21.3,8,30.9c5.3,9.5,12.6,16.9,21.7,22.1c9.1,5.2,19.1,7.8,30,7.8
	c10.9,0,20.9-2.6,30-7.8c9.1-5.2,16.3-12.6,21.7-22.1c5.3-9.5,8-19.8,8-30.9c0-17.1-5.9-31.7-17.7-43.8"/>
<path d="M598.1,197.4c0,23.5-8.5,43-25.5,58.5c-15.5,14-33.9,21.1-55.1,21.1c-21.3,0-40-7.4-55.9-22.3
	c-15.9-14.8-23.9-33.9-23.9-57.3c0-23.4,8-42.6,23.9-57.4c15.9-14.8,34.6-22.3,55.9-22.3c21.1,0,39.5,7,55,21.1
	C589.5,154.2,598.1,173.7,598.1,197.4z M578.9,197.3c0-16.3-6-30.4-18.1-42.1c-12.1-11.7-26.6-17.6-43.8-17.6c-11,0-21.3,2.7-30.9,8
	c-9.5,5.3-16.9,12.6-22.1,21.7c-5.2,9.1-7.8,19.1-7.8,30c0,10.9,2.6,20.9,7.8,30c5.2,9.1,12.6,16.3,22.1,21.7c9.5,5.3,19.8,8,30.9,8
	c17.1,0,31.7-5.9,43.8-17.7C572.8,227.5,578.9,213.5,578.9,197.3z"/>
<g>
	<path fill="none" stroke="#000000" stroke-width="8" stroke-linecap="round" stroke-miterlimit="10" d="M649.5,215
		c23.8,0,43,27.5,43,61.4"/>
	<path fill="none" stroke="#000000" stroke-width="8" stroke-linecap="round" stroke-miterlimit="10" d="M649.5,179.6
		c23.8,0,43-27.5,43-61.4"/>
</g>
<g>
	<path d="M610.8,133.5c-8.9,0-17.4,1.8-25.1,5.1c0.1,0.1,0.1,0.1,0.2,0.2c17.1,15.5,25.7,35,25.7,58.6c0,23.5-8.5,43-25.5,58.5
		c-0.1,0.1-0.2,0.1-0.2,0.2c7.7,3.3,16.2,5.1,25,5.1c35.2,0,63.8-28.6,63.8-63.8S646,133.5,610.8,133.5z"/>
</g>
<path d="M419.1,14.3c39.2,2.4,72.4,16.1,100.4,42.3c5.3,5,5,11.2-0.6,15.9c-7.7,6.6-15.5,13.1-23.3,19.7c-6.4,5.4-10.4,5.6-16.6,0.1
	c-13.7-12.2-29.3-20.6-47.5-23.8c-23.2-4.2-45.3-0.6-66.4,9.6c-4,2-5.5,6.2-3.8,9.5c1.9,3.7,5.9,4.6,10.4,2.3
	c15.4-8.1,31.4-13.7,49.1-12.4c22,1.7,40,11.6,54.6,27.8c3.7,4.1,3.8,9.1-0.2,13c-7.5,7.4-15.2,14.5-23,21.5
	c-3.8,3.4-9.1,3.2-12.7-0.5c-13.8-14-34-14.9-48.9-1.8c-4.7,4.1-10.8,3.7-14.2-0.5c-3.4-4.2-2.7-9.5,1.8-13.8
	c16.3-15.4,41-18.4,61.6-7.5c1.5,0.8,3.1,2.3,4.4,2.1c2.2-0.4,4.9-1.4,6.1-3.1c1.9-2.5,0.9-5.5-1.8-7.4c-10.9-7.8-23-12.4-36.4-11
	c-15.2,1.6-28.9,7.4-41,16.9c-6.1,4.8-11.2,4.3-15.8-1.8c-6.2-8.1-12.2-16.3-18.1-24.5c-4.6-6.4-3.9-11,2.7-15.7
	c17.9-13,38-20.4,59.9-22.7c30-3.2,57.4,3.7,81.9,21.4c4.5,3.2,9.2,2.5,11.8-1.3c2.6-4,1.5-8-3.3-11.4
	c-46.3-32.8-112.7-31.5-157.6,3.3c-1.3,1-2.7,2-4,3c-4.6,3.1-10.4,2.5-13.4-1.5c-3.3-4.4-2.2-10.3,2.5-14.1
	c17.2-13.6,36.5-22.9,57.7-28.5C390.1,15.5,405,14.1,419.1,14.3z"/>
</svg>
